<?xml version="1.0" encoding="UTF-8"?>
<svg version="1.1" xmlns="http://www.w3.org/2000/svg" width="641" height="641">
<path d="M0 0 C1.12156494 0.00054382 2.24312988 0.00108765 3.39868164 0.00164795 C21.69289267 0.04232345 39.30918359 0.95723739 57.3125 4.375 C58.48055176 4.59462402 59.64860352 4.81424805 60.85205078 5.04052734 C76.35725019 8.04709339 91.41601598 12.14185373 106.3125 17.375 C107.16440918 17.67100098 108.01631836 17.96700195 108.89404297 18.27197266 C137.98554317 28.4995827 165.59621425 42.94186437 190.3125 61.375 C190.89435059 61.80522461 191.47620117 62.23544922 192.07568359 62.67871094 C195.88237088 65.503134 199.61413332 68.41050074 203.3125 71.375 C204.31410156 72.17035156 205.31570313 72.96570313 206.34765625 73.78515625 C214.76264675 80.64946963 222.43470028 88.28584005 230.125 95.9375 C230.66088745 96.46812042 231.1967749 96.99874084 231.74890137 97.54544067 C238.73931459 104.48271776 245.23875203 111.60373422 251.3125 119.375 C252.24896362 120.56089722 252.24896362 120.56089722 253.2043457 121.77075195 C274.70999961 149.25937791 291.30338364 179.61024322 303.3125 212.375 C303.61091797 213.18195313 303.90933594 213.98890625 304.21679688 214.8203125 C310.29896928 231.4783094 314.4826947 248.80220773 317.5625 266.25 C317.78897217 267.52943481 317.78897217 267.52943481 318.02001953 268.8347168 C318.49435556 271.67672224 318.91326042 274.52142955 319.3125 277.375 C319.49055176 278.63965088 319.66860352 279.90430176 319.85205078 281.20727539 C321.54356175 294.14232068 321.71132777 307.0318408 321.6875 320.0625 C321.68668427 321.74484741 321.68668427 321.74484741 321.68585205 323.46118164 C321.64517655 341.75539267 320.73026261 359.37168359 317.3125 377.375 C316.98306396 379.12707764 316.98306396 379.12707764 316.64697266 380.91455078 C313.64040661 396.41975019 309.54564627 411.47851598 304.3125 426.375 C303.86849854 427.65286377 303.86849854 427.65286377 303.41552734 428.95654297 C293.1879173 458.04804317 278.74563563 485.65871425 260.3125 510.375 C259.88227539 510.95685059 259.45205078 511.53870117 259.00878906 512.13818359 C256.184366 515.94487088 253.27699926 519.67663332 250.3125 523.375 C249.51714844 524.37660156 248.72179687 525.37820313 247.90234375 526.41015625 C241.03803037 534.82514675 233.40165995 542.49720028 225.75 550.1875 C225.21937958 550.72338745 224.68875916 551.2592749 224.14205933 551.81140137 C217.20478224 558.80181459 210.08376578 565.30125203 202.3125 571.375 C201.12660278 572.31146362 201.12660278 572.31146362 199.91674805 573.2668457 C172.42812209 594.77249961 142.07725678 611.36588364 109.3125 623.375 C108.50554687 623.67341797 107.69859375 623.97183594 106.8671875 624.27929688 C90.2091906 630.36146928 72.88529227 634.5451947 55.4375 637.625 C54.15806519 637.85147217 54.15806519 637.85147217 52.8527832 638.08251953 C50.01077776 638.55685556 47.16607045 638.97576042 44.3125 639.375 C43.04784912 639.55305176 41.78319824 639.73110352 40.48022461 639.91455078 C27.54517932 641.60606175 14.6556592 641.77382777 1.625 641.75 C0.50343506 641.74945618 -0.61812988 641.74891235 -1.77368164 641.74835205 C-20.06789267 641.70767655 -37.68418359 640.79276261 -55.6875 637.375 C-57.43957764 637.04556396 -57.43957764 637.04556396 -59.22705078 636.70947266 C-74.73225019 633.70290661 -89.79101598 629.60814627 -104.6875 624.375 C-105.53940918 624.07899902 -106.39131836 623.78299805 -107.26904297 623.47802734 C-136.36054317 613.2504173 -163.97121425 598.80813563 -188.6875 580.375 C-189.26935059 579.94477539 -189.85120117 579.51455078 -190.45068359 579.07128906 C-194.25737088 576.246866 -197.98913332 573.33949926 -201.6875 570.375 C-202.68910156 569.57964844 -203.69070312 568.78429687 -204.72265625 567.96484375 C-213.13764675 561.10053037 -220.80970028 553.46415995 -228.5 545.8125 C-229.03588745 545.28187958 -229.5717749 544.75125916 -230.12390137 544.20455933 C-237.11431459 537.26728224 -243.61375203 530.14626578 -249.6875 522.375 C-250.31180908 521.58440186 -250.93611816 520.79380371 -251.5793457 519.97924805 C-273.08499961 492.49062209 -289.67838364 462.13975678 -301.6875 429.375 C-302.13512695 428.16457031 -302.13512695 428.16457031 -302.59179688 426.9296875 C-308.67396928 410.2716906 -312.8576947 392.94779227 -315.9375 375.5 C-316.08848145 374.64704346 -316.23946289 373.79408691 -316.39501953 372.9152832 C-316.86935556 370.07327776 -317.28826042 367.22857045 -317.6875 364.375 C-317.86555176 363.11034912 -318.04360352 361.84569824 -318.22705078 360.54272461 C-319.91856175 347.60767932 -320.08632777 334.7181592 -320.0625 321.6875 C-320.06168427 320.00515259 -320.06168427 320.00515259 -320.06085205 318.28881836 C-320.02017655 299.99460733 -319.10526261 282.37831641 -315.6875 264.375 C-315.46787598 263.20694824 -315.24825195 262.03889648 -315.02197266 260.83544922 C-312.01540661 245.33024981 -307.92064627 230.27148402 -302.6875 215.375 C-302.39149902 214.52309082 -302.09549805 213.67118164 -301.79052734 212.79345703 C-291.5629173 183.70195683 -277.12063563 156.09128575 -258.6875 131.375 C-258.25727539 130.79314941 -257.82705078 130.21129883 -257.38378906 129.61181641 C-254.559366 125.80512912 -251.65199926 122.07336668 -248.6875 118.375 C-247.49447266 116.87259766 -247.49447266 116.87259766 -246.27734375 115.33984375 C-239.41303037 106.92485325 -231.77665995 99.25279972 -224.125 91.5625 C-223.32906937 90.75866882 -223.32906937 90.75866882 -222.51705933 89.93859863 C-215.57978224 82.94818541 -208.45876578 76.44874797 -200.6875 70.375 C-199.50160278 69.43853638 -199.50160278 69.43853638 -198.29174805 68.4831543 C-170.80312209 46.97750039 -140.45225678 30.38411636 -107.6875 18.375 C-106.47707031 17.92737305 -106.47707031 17.92737305 -105.2421875 17.47070312 C-88.5841906 11.38853072 -71.26029227 7.2048053 -53.8125 4.125 C-52.95954346 3.97401855 -52.10658691 3.82303711 -51.2277832 3.66748047 C-48.38577776 3.19314444 -45.54107045 2.77423958 -42.6875 2.375 C-41.42284912 2.19694824 -40.15819824 2.01889648 -38.85522461 1.83544922 C-25.92017932 0.14393825 -13.0306592 -0.02382777 0 0 Z " fill="#000000" transform="translate(319.6875,-0.375)"/>
<path d="M0 0 C1.51182861 -0.00151062 1.51182861 -0.00151062 3.05419922 -0.00305176 C16.82735167 0.00626776 30.26924835 0.256791 43.84619141 2.80126953 C46.3228978 3.26360818 48.80460968 3.66418525 51.29296875 4.05859375 C68.41175812 6.90521503 86.44499356 10.97634319 102.25 18.25 C103.66468852 18.79681223 105.08121903 19.33889574 106.5 19.875 C131.92585048 30.10642332 154.99062009 43.99895186 176.25 61.25 C176.91660645 61.78818359 177.58321289 62.32636719 178.27001953 62.88085938 C185.33185661 68.61639923 191.92911848 74.70689999 198.25 81.25 C200.65426806 83.67334955 203.06896678 86.0773079 205.5390625 88.43359375 C212.00437082 94.67185947 217.48445956 101.36874923 222.91064453 108.50927734 C224.16317884 110.13716098 225.45338196 111.73586599 226.74609375 113.33203125 C234.26302196 122.70113058 240.29920747 132.83284135 246.25 143.25 C246.7744873 144.16587891 247.29897461 145.08175781 247.83935547 146.02539062 C254.53173336 157.79085743 260.58270157 169.53820891 265.25 182.25 C265.57983887 183.1383252 265.90967773 184.02665039 266.24951172 184.94189453 C270.78010424 197.23862028 274.56714561 209.42753415 277.25 222.25 C277.64445313 223.87228516 277.64445313 223.87228516 278.046875 225.52734375 C278.89197261 229.08451479 279.603059 232.65277032 280.25 236.25 C280.38825195 236.99330566 280.52650391 237.73661133 280.66894531 238.50244141 C283.45833727 254.32893505 283.54531324 270.16689659 283.5625 286.1875 C283.56599457 287.23958649 283.56948914 288.29167297 283.5730896 289.37564087 C283.59719826 302.48092888 283.02252472 315.26398557 281.25 328.25 C281.12439697 329.25345459 280.99879395 330.25690918 280.86938477 331.29077148 C279.68046396 340.64836027 278.15758699 349.70930787 275.3125 358.71875 C274.39554306 361.76628336 273.63880481 364.79177556 272.90625 367.88671875 C271.32062887 374.30788673 269.12800798 380.39773014 266.75 386.5625 C266.35941406 387.59439453 265.96882812 388.62628906 265.56640625 389.68945312 C252.8659555 423.06555351 235.66344095 454.04430248 211.25 480.25 C210.1196848 481.53701799 208.99451699 482.8285782 207.875 484.125 C197.77756609 495.68819044 187.52927383 507.36990918 175.375 516.8125 C174.5718335 517.43922607 174.5718335 517.43922607 173.75244141 518.07861328 C166.5051084 523.54877024 160.15965072 524.11187673 151.25 523.25 C145.24256105 521.56370135 141.80874714 518.23224599 138.25 513.25 C137.72019531 512.51136719 137.19039063 511.77273438 136.64453125 511.01171875 C133.66447698 505.11004264 134.26966762 497.00507434 135.91796875 490.69140625 C140.44393364 481.24063665 150.86283299 474.10447728 158.875 467.75 C169.57684038 459.11097813 178.00904077 448.17631777 186.25 437.25 C186.6713623 436.69618652 187.09272461 436.14237305 187.52685547 435.57177734 C217.02423435 396.56060113 235.82610295 345.70179305 236.5234375 296.58984375 C236.53592026 295.77493469 236.54840302 294.96002563 236.56126404 294.12042236 C237.00671741 257.94558454 232.08351025 222.57059445 217.25 189.25 C216.92290039 188.51136719 216.59580078 187.77273437 216.25878906 187.01171875 C206.31917788 164.77394459 193.86346667 144.42814847 177.30859375 126.49609375 C175.51621038 124.54045724 173.81960056 122.53955742 172.125 120.5 C138.23634208 81.87003903 89.08430945 58.18955127 39.0625 49.5625 C38.38743408 49.44318115 37.71236816 49.3238623 37.0168457 49.20092773 C24.9066812 47.21581958 12.61910477 47.04476063 0.375 47.0625 C-0.33700562 47.06277191 -1.04901123 47.06304382 -1.78259277 47.06332397 C-19.2705617 47.09379846 -36.8074567 47.53576126 -53.75 52.25 C-54.64203125 52.45238281 -55.5340625 52.65476563 -56.453125 52.86328125 C-89.17105283 60.31163633 -119.85842177 76.01824954 -145.75 97.25 C-146.27803223 97.67651855 -146.80606445 98.10303711 -147.35009766 98.54248047 C-163.07959067 111.29954469 -178.02205028 125.6861749 -189.75 142.25 C-190.16507812 142.83136719 -190.58015625 143.41273438 -191.0078125 144.01171875 C-203.90085429 162.24390361 -214.21168038 182.24195567 -221.75 203.25 C-221.9857373 203.89211426 -222.22147461 204.53422852 -222.46435547 205.19580078 C-225.78751065 214.30907279 -228.42141467 223.46021522 -230.5 232.9375 C-230.69851562 233.83839355 -230.89703125 234.73928711 -231.1015625 235.66748047 C-231.70012315 238.52140536 -232.23916214 241.37906794 -232.75 244.25 C-232.93908936 245.31089844 -233.12817871 246.37179687 -233.32299805 247.46484375 C-234.99832974 258.21084662 -235.08853311 268.88022015 -235.06567383 279.73583984 C-235.06252629 282.84899373 -235.08601289 285.96118235 -235.11132812 289.07421875 C-235.16565713 306.15076199 -233.39440887 322.74390572 -229.4375 339.375 C-229.22875244 340.27114014 -229.02000488 341.16728027 -228.80493164 342.09057617 C-225.81846155 354.55560403 -222.07158728 366.58838159 -216.75 378.25 C-216.0781144 379.78922586 -215.40887574 381.32960963 -214.7421875 382.87109375 C-207.22774015 400.06014821 -198.81617438 415.79902546 -187.12255859 430.51904297 C-185.91478013 432.04219297 -184.73082031 433.58416595 -183.55078125 435.12890625 C-173.067022 448.52814903 -160.53403958 460.31491989 -146.75 470.25 C-146.11594238 470.70713379 -145.48188477 471.16426758 -144.82861328 471.63525391 C-125.51201954 485.43826235 -105.25004102 496.69829234 -82.78320312 504.53955078 C-81.39146492 505.025857 -80.00223349 505.51938066 -78.61523438 506.01904297 C-61.9173144 512.02984809 -46.47205573 515.582366 -28.625 515.6875 C-26.77491333 515.70272705 -26.77491333 515.70272705 -24.88745117 515.71826172 C-17.96078835 515.65123711 -12.12633815 515.0066408 -5.75 512.25 C-5.04004883 511.95005127 -4.33009766 511.65010254 -3.59863281 511.34106445 C5.56033751 507.31032189 12.29451421 500.41255812 16.25 491.25 C17.98682772 485.64505088 19.14192843 480.00632268 20.25 474.25 C20.3886204 473.53865095 20.52724081 472.82730191 20.67006183 472.09439683 C23.56614423 456.72359526 23.68623082 441.54018628 23.66650391 425.94091797 C23.67224518 423.14320797 23.68247093 420.34551845 23.69252014 417.54782104 C23.71174938 411.56549885 23.72047239 405.5832392 23.72182083 399.6008873 C23.72387433 390.94963571 23.74343127 382.29848928 23.76721875 373.64727332 C23.80546334 359.60258785 23.83137122 345.55790957 23.84863281 331.51318359 C23.86541802 317.88882442 23.88563217 304.2644808 23.91210938 290.64013672 C23.91455951 289.37725452 23.91455951 289.37725452 23.91705914 288.08885954 C23.93501653 278.90227995 23.95435517 269.71570406 23.97536278 260.52913094 C23.9772042 259.72275607 23.97904562 258.9163812 23.98094284 258.08557073 C23.98832082 254.86310635 23.9957146 251.64064203 24.00328664 248.4181781 C24.02541825 238.98533992 24.04322466 229.55251711 24.05323945 220.11965789 C24.05960681 214.21793791 24.0691448 208.31622918 24.08120801 202.4145181 C24.08800658 199.00762937 24.09307124 195.60075879 24.09379387 192.19386292 C24.09535528 188.50843947 24.10290655 184.82307624 24.11196899 181.13766479 C24.11090074 180.05210356 24.10983249 178.96654232 24.10873187 177.84808528 C24.11416839 176.37668659 24.11416839 176.37668659 24.11971474 174.87556267 C24.12074656 174.02443897 24.12177839 173.17331527 24.12284148 172.29639995 C24.25 170.25 24.25 170.25 25.25 168.25 C24.00476563 168.68699219 24.00476563 168.68699219 22.734375 169.1328125 C12.74728237 172.45487888 2.68609827 174.74191837 -7.61621094 176.87304688 C-16.21943637 178.66719259 -24.73667068 180.6957604 -33.25 182.875 C-41.490801 184.97256473 -49.72870182 186.99155952 -58.0625 188.6875 C-59.24392578 188.93330811 -59.24392578 188.93330811 -60.44921875 189.18408203 C-61.18398438 189.3282959 -61.91875 189.47250977 -62.67578125 189.62109375 C-63.29880127 189.74411865 -63.92182129 189.86714355 -64.5637207 189.99389648 C-67.62997921 190.35308188 -70.66638672 190.28734761 -73.75 190.25 C-72.93647004 197.98768579 -72.11805592 205.72484425 -71.29638672 213.46166992 C-71.01794141 216.08883205 -70.74057782 218.71610908 -70.46435547 221.34350586 C-70.0650833 225.13947434 -69.66180722 228.93500031 -69.2578125 232.73046875 C-69.1368924 233.88830368 -69.01597229 235.04613861 -68.89138794 236.23905945 C-68.16475854 243.02352608 -67.25914299 249.75321157 -66.17073059 256.48939514 C-64.8767675 264.97967582 -64.42510526 273.00947264 -69.33203125 280.41796875 C-73.04500306 285.21516924 -76.70818248 288.835491 -82.75 290.25 C-89.53139771 290.92352658 -95.88146772 291.0472856 -101.75 287.25 C-109.33145678 279.17788526 -112.16689933 271.66635967 -113.3203125 260.81640625 C-113.44687225 259.7062767 -113.57343201 258.59614716 -113.7038269 257.45237732 C-113.96949797 255.10369484 -114.22972113 252.75439058 -114.48486328 250.40454102 C-114.87039468 246.85490182 -115.2714898 243.30731203 -115.67578125 239.75976562 C-116.85661576 229.27332741 -117.99155354 218.81044402 -118.53466797 208.26879883 C-118.91901676 202.88050763 -119.87656691 197.57651002 -120.75 192.25 C-124.19609983 169.88864111 -124.19609983 169.88864111 -118.75 161.25 C-116.375 158.5625 -116.375 158.5625 -113.75 156.25 C-113.028125 155.54875 -112.30625 154.8475 -111.5625 154.125 C-105.90882862 150.35588574 -99.47111016 149.29139946 -92.82421875 148.3828125 C-85.45177756 147.27897888 -78.28874861 145.56129881 -71.0625 143.75 C-48.33100994 138.10550533 -48.33100994 138.10550533 -41.75 138.25 C-41.75 137.59 -41.75 136.93 -41.75 136.25 C-39.62519816 135.79074888 -37.50014638 135.33265412 -35.375 134.875 C-34.19164062 134.61976563 -33.00828125 134.36453125 -31.7890625 134.1015625 C-28.84154006 133.47175001 -25.8876713 132.88324631 -22.9296875 132.3046875 C-17.66808803 131.25797677 -12.4614909 130.02015657 -7.25 128.75 C-2.13095418 127.50237436 2.97721485 126.28282789 8.15234375 125.2890625 C11.84203559 124.56979329 15.46293575 123.70140749 19.09765625 122.7421875 C47.85614887 115.18588151 47.85614887 115.18588151 57.8515625 119.328125 C60.01157321 120.80049185 61.5585568 122.26129821 63.25 124.25 C63.83265625 124.93449219 64.4153125 125.61898437 65.015625 126.32421875 C68.81977136 131.13273085 70.37300084 134.50403531 70.38422108 140.71421623 C70.38867892 141.85675924 70.39313676 142.99930225 70.39772969 144.17646778 C70.39745315 146.06789262 70.39745315 146.06789262 70.39717102 147.99752808 C70.40046996 149.34633589 70.4041956 150.69514272 70.4083125 152.04394829 C70.41833881 155.7591482 70.42205037 159.47433196 70.42470181 163.18954349 C70.42860349 167.19402679 70.43818253 171.19849728 70.44691467 175.20297241 C70.46669227 184.88377942 70.47675104 194.5645875 70.48564246 204.24540967 C70.49002689 208.80926881 70.49539364 213.37312679 70.50063133 217.93698502 C70.51765176 233.12075751 70.53214122 248.30452929 70.53938007 263.48830986 C70.54128987 267.43019486 70.54321021 271.37207986 70.54516602 275.31396484 C70.54564976 276.29366269 70.5461335 277.27336055 70.5466319 278.28274621 C70.55491436 294.11786132 70.58021735 309.95290045 70.61274669 325.78798245 C70.64590691 342.06374894 70.66383727 358.33947698 70.66702431 374.61527741 C70.66918211 383.74580281 70.67782215 392.87621771 70.70348549 402.00671005 C70.72531597 409.79152401 70.73318313 417.57620067 70.72351871 425.36104177 C70.71900822 429.32519319 70.72066712 433.28906212 70.74028015 437.25317383 C70.81833229 453.94585253 70.37282546 469.96694278 66.25 486.25 C65.96483678 487.41208418 65.67967356 488.57416836 65.38586903 489.77146721 C64.74110374 492.29056981 64.02004736 494.76681358 63.25 497.25 C63.06179688 497.92804688 62.87359375 498.60609375 62.6796875 499.3046875 C56.14557821 521.2229022 42.56243624 541.15759417 22.25 552.25 C18.6368554 554.06150829 14.98106225 555.69778612 11.25 557.25 C10.60933594 557.53617188 9.96867187 557.82234375 9.30859375 558.1171875 C-25.11457954 572.54072015 -68.9530916 563.90570891 -102.14208984 550.33935547 C-129.33573833 538.98024111 -153.69924743 525.70896919 -176.75 507.25 C-177.66910156 506.52425781 -178.58820313 505.79851562 -179.53515625 505.05078125 C-192.216933 494.88711269 -204.29082481 483.70520099 -214.75 471.25 C-216.01070312 469.765 -216.01070312 469.765 -217.296875 468.25 C-231.59358262 451.08850355 -243.54516708 432.08895896 -253.75 412.25 C-254.18006348 411.41992432 -254.61012695 410.58984863 -255.05322266 409.73461914 C-257.60959475 404.72620694 -259.85899418 399.73121688 -261.75 394.4375 C-262.20750611 393.18068815 -262.6658736 391.9241896 -263.125 390.66796875 C-263.49347046 389.64860229 -263.49347046 389.64860229 -263.86938477 388.60864258 C-264.53105481 386.83642348 -265.22133483 385.07484432 -265.92553711 383.3190918 C-269.02287838 375.5519851 -271.35912419 367.81345216 -273.3125 359.6875 C-273.60914551 358.47094727 -273.90579102 357.25439453 -274.21142578 356.00097656 C-275.93479719 348.85336188 -277.6137931 341.69570857 -279.125 334.5 C-279.2804126 333.78900146 -279.4358252 333.07800293 -279.59594727 332.34545898 C-282.55593212 317.51172566 -281.99291417 301.87994507 -282.04516602 286.82714844 C-282.05663242 284.54355649 -282.07699833 282.25999021 -282.10668945 279.9765625 C-282.50251286 249.33673506 -276.50983514 220.46791723 -267.625 191.25 C-267.13821777 189.64801758 -267.13821777 189.64801758 -266.64160156 188.01367188 C-264.72279845 181.87739796 -262.49418601 176.06030845 -259.75 170.25 C-259.38986816 169.46109375 -259.02973633 168.6721875 -258.65869141 167.859375 C-246.40308938 141.03937366 -230.94471994 115.86320304 -210.75 94.25 C-209.41606872 92.7296911 -208.08276085 91.20883504 -206.75 89.6875 C-196.23953238 78.05811698 -185.28183714 66.90716284 -172.61914062 57.62304688 C-170.58119361 56.12599698 -168.56477605 54.60207022 -166.546875 53.078125 C-151.29786433 41.68711571 -134.96344479 32.33975666 -117.75 24.25 C-116.78247803 23.79415527 -116.78247803 23.79415527 -115.79541016 23.32910156 C-105.37885489 18.47443243 -94.75475648 14.55207824 -83.75 11.25 C-82.89583496 10.99331543 -82.04166992 10.73663086 -81.16162109 10.47216797 C-65.25131578 5.79266641 -49.20603889 3.1744844 -32.75 1.25 C-31.92274414 1.1454248 -31.09548828 1.04084961 -30.24316406 0.93310547 C-20.21450869 -0.17875854 -10.07673032 0.00696699 0 0 Z " fill="#FCFCFC" transform="translate(320.75,32.75)"/>
<path d="M0 0 C-0.33 94.38 -0.66 188.76 -1 286 C-1.33 286 -1.66 286 -2 286 C-2 192.28 -2 98.56 -2 2 C-3.65 2 -5.3 2 -7 2 C-4 0 -4 0 0 0 Z " fill="#2A2A2A" transform="translate(346,201)"/>
<path d="M0 0 C-0.33 21.12 -0.66 42.24 -1 64 C-1.33 64 -1.66 64 -2 64 C-2 43.54 -2 23.08 -2 2 C-3.65 2 -5.3 2 -7 2 C-4 0 -4 0 0 0 Z " fill="#262727" transform="translate(346,201)"/>
<path d="M0 0 C-0.33 7.26 -0.66 14.52 -1 22 C-1.33 22 -1.66 22 -2 22 C-2 15.4 -2 8.8 -2 2 C-3.65 2 -5.3 2 -7 2 C-4 0 -4 0 0 0 Z " fill="#444445" transform="translate(346,201)"/>
<path d="M0 0 C0.66 0.33 1.32 0.66 2 1 C-0.97 3.97 -3.94 6.94 -7 10 C-7 7 -7 7 -4.625 4.4375 C-3.75875 3.633125 -2.8925 2.82875 -2 2 C-1.34 1.34 -0.68 0.68 0 0 Z " fill="#CECECE" transform="translate(209,187)"/>
</svg>
